<?xml version="1.0" encoding="UTF-8"?><svg xmlns="http://www.w3.org/2000/svg" xmlns:xlink="http://www.w3.org/1999/xlink" viewBox="0 0 100 40"><defs><style>.cls-1{fill:url(#linear-gradient);}.cls-2{fill:#2d2d35;}.cls-3{fill:url(#linear-gradient-3);}.cls-4{fill:url(#linear-gradient-2);}.cls-5{fill:url(#radial-gradient);}</style><radialGradient id="radial-gradient" cx="29.74" cy="18.71" fx="29.74" fy="18.71" r="4.64" gradientUnits="userSpaceOnUse"><stop offset=".22" stop-color="#ffe50a"/><stop offset=".89" stop-color="#ffc314"/></radialGradient><linearGradient id="linear-gradient" x1="14.4" y1="24.99" x2="36.89" y2="24.99" gradientUnits="userSpaceOnUse"><stop offset="0" stop-color="#33a7ff"/><stop offset="0" stop-color="#48aefc"/><stop offset=".02" stop-color="#59b4f9"/><stop offset=".03" stop-color="#65b8f8"/><stop offset=".05" stop-color="#6cbbf7"/><stop offset=".11" stop-color="#6ebcf7"/><stop offset="1" stop-color="#d1ebff"/></linearGradient><linearGradient id="linear-gradient-2" x1="12.19" y1="20.91" x2="29.98" y2="20.91" gradientUnits="userSpaceOnUse"><stop offset="0" stop-color="#c7d5ff"/><stop offset="0" stop-color="#d2ddff"/><stop offset="1" stop-color="#fff"/></linearGradient><linearGradient id="linear-gradient-3" x1="5.95" y1="23.84" x2="17.88" y2="23.84" xlink:href="#linear-gradient-2"/></defs><g id="broken-clouds"><path class="cls-2" d="m48.78,13.58c.11.5.82.5.93,0l.67-3.13c.03-.17.09-.32.18-.43s.2-.2.32-.27c.12-.06.25-.11.4-.12.14-.02.29-.02.43,0,.14.02.26.07.38.14.12.07.22.16.3.27s.14.23.17.38c.03.15.03.3,0,.47l-1.7,7.52c-.05.22-.24.37-.46.37h-1.73c-.22,0-.41-.15-.46-.37l-.77-3.31c-.11-.49-.81-.49-.93,0l-.76,3.3c-.05.22-.24.37-.46.37h-1.56c-.22,0-.41-.15-.46-.37l-1.78-7.52c-.04-.17-.04-.33,0-.48.03-.14.09-.27.18-.38s.19-.2.31-.27c.12-.07.25-.12.39-.14.14-.02.29-.02.43,0,.14.02.28.06.4.12.12.06.23.15.32.27.09.11.15.26.19.43l.6,2.82c.11.5.82.51.93,0l.56-2.52c.05-.17.12-.31.21-.42s.2-.2.31-.27c.11-.06.22-.11.34-.14.12-.03.23-.04.34-.04s.22.01.34.04c.12.03.24.07.35.14.11.06.21.15.31.27.09.11.16.25.21.42l.63,2.82Z"/><path class="cls-2" d="m56.49,18.98c-.41,0-.82-.05-1.23-.16-.42-.11-.79-.28-1.13-.52-.34-.24-.61-.56-.81-.97-.21-.4-.31-.9-.31-1.49v-1c0-.61.1-1.11.3-1.51.2-.4.46-.72.77-.96.31-.24.66-.41,1.04-.52s.75-.15,1.11-.15c.39,0,.77.05,1.15.14.37.09.71.27,1,.54.29.27.53.63.71,1.11.18.47.27,1.08.27,1.83,0,.1,0,.22-.02.35-.01.14-.02.25-.04.35h-4.05c0,.21.04.37.12.5.08.13.19.23.32.32.13.08.27.14.42.18s.29.05.43.05c.28,0,.49-.01.64-.03s.3-.06.45-.11c.08-.03.17-.06.25-.1.09-.03.18-.06.28-.07.2-.02.38,0,.54.07.16.07.28.19.36.36.12.28.12.54,0,.77-.12.23-.31.43-.58.58-.09.05-.21.11-.34.16-.14.05-.3.1-.48.15s-.37.08-.57.11c-.2.03-.4.04-.61.04Zm-.25-5.44c-.13,0-.25.02-.37.05-.12.03-.22.09-.31.17-.09.08-.17.18-.23.31-.06.13-.09.28-.09.47h1.91c0-.19-.01-.35-.06-.47-.05-.12-.12-.23-.2-.31s-.18-.14-.3-.17c-.12-.03-.24-.05-.36-.05Z"/><path class="cls-2" d="m64.63,18.79l-.09-.48c-.22.2-.47.37-.77.49-.29.12-.61.18-.95.18h-.25c-.23,0-.49-.04-.76-.11-.27-.07-.52-.19-.75-.37-.23-.17-.42-.41-.58-.7-.16-.3-.23-.67-.23-1.11s.08-.79.23-1.08c.15-.29.35-.52.61-.69.25-.17.55-.3.88-.37.34-.08.69-.11,1.06-.11h1.17c0-.17-.04-.3-.1-.41s-.13-.2-.23-.26c-.09-.06-.2-.11-.33-.14-.12-.03-.26-.04-.39-.04-.13,0-.25.01-.37.03s-.25.05-.38.09c-.09.03-.18.06-.25.1s-.17.08-.28.12c-.11.05-.22.08-.33.09-.12,0-.23-.01-.35-.05-.11-.03-.22-.09-.31-.16-.09-.08-.17-.17-.22-.28-.11-.23-.12-.45-.04-.66s.21-.4.41-.55c.15-.11.32-.21.51-.28.19-.08.38-.14.59-.19.2-.05.41-.09.62-.11.21-.02.41-.03.61-.03.41,0,.8.04,1.17.13s.7.24.98.47.51.53.68.92c.17.39.25.9.25,1.51v3.58c0,.26-.21.48-.48.48h-1.31Zm-.44-2.69h-1.03c-.22,0-.38.05-.5.15s-.17.24-.17.43.06.33.17.42c.11.09.27.14.46.14h.16c.11,0,.21-.01.32-.05.11-.03.2-.08.29-.14.09-.06.16-.14.21-.23.06-.09.08-.2.08-.32v-.41Z"/><path class="cls-2" d="m68.31,13.8h-.37c-.35,0-.61-.09-.76-.28s-.23-.4-.23-.65c0-.11.02-.23.05-.34.03-.11.09-.22.17-.31s.18-.16.31-.22c.13-.06.28-.09.46-.09h.37v-1.18c0-.19.03-.36.1-.5.06-.14.15-.26.25-.35.11-.09.22-.16.36-.2.13-.05.27-.07.41-.07s.28.02.41.07c.13.05.25.11.36.2.11.09.19.21.25.35.06.14.1.31.1.5v1.18h.67c.18,0,.33.03.46.09.12.06.23.13.3.22s.14.19.18.31c.04.11.06.23.06.34,0,.24-.08.46-.23.65s-.41.28-.76.28h-.67v2.81c0,.17.04.29.11.34.07.05.16.08.25.09.08,0,.16,0,.23-.02.07-.02.16-.03.27-.03.19,0,.35.06.5.17.14.11.23.26.27.45.05.23.04.44-.05.62-.09.18-.21.33-.37.43-.13.08-.29.15-.49.22-.2.06-.39.09-.59.09-.38,0-.71-.04-1.01-.12-.29-.08-.54-.22-.75-.4-.2-.18-.36-.42-.46-.71s-.16-.66-.16-1.09v-2.86Z"/><path class="cls-2" d="m77.52,18.79c-.26,0-.48-.21-.48-.48v-3.63c0-.19-.03-.35-.09-.48s-.14-.24-.23-.32c-.09-.08-.19-.14-.3-.18-.11-.03-.21-.05-.31-.05s-.2.02-.31.05c-.11.03-.21.09-.3.16s-.17.18-.23.3c-.06.13-.09.28-.1.46v3.69c0,.26-.21.48-.48.48h-1.34c-.26,0-.48-.21-.48-.48v-7.97c0-.19.03-.35.1-.49.06-.14.15-.26.25-.35.11-.09.23-.17.37-.22.14-.05.28-.07.44-.07s.29.02.43.07c.14.05.26.12.36.22.11.09.19.21.25.35s.1.3.1.49v1.91c.2-.17.42-.31.67-.4.25-.09.53-.14.83-.14.37,0,.72.05,1.05.15s.61.27.85.52.43.56.58.96c.14.4.21.9.21,1.5v3.48c0,.26-.21.48-.48.48h-1.38Z"/><path class="cls-2" d="m83.87,18.98c-.41,0-.82-.05-1.23-.16-.42-.11-.79-.28-1.13-.52-.34-.24-.61-.56-.81-.97-.21-.4-.31-.9-.31-1.49v-1c0-.61.1-1.11.3-1.51.2-.4.46-.72.77-.96.31-.24.66-.41,1.04-.52.38-.1.75-.15,1.11-.15.39,0,.77.05,1.15.14.37.09.71.27,1,.54.29.27.53.63.71,1.11.18.47.27,1.08.27,1.83,0,.1,0,.22-.02.35-.01.14-.02.25-.04.35h-4.05c0,.21.04.37.12.5.08.13.19.23.32.32s.27.14.42.18c.15.03.29.05.43.05.28,0,.49-.01.64-.03.15-.02.3-.06.45-.11.08-.03.17-.06.25-.1.09-.03.18-.06.28-.07.2-.02.38,0,.54.07.16.07.28.19.36.36.12.28.12.54,0,.77-.12.23-.31.43-.58.58-.09.05-.21.11-.34.16-.14.05-.3.1-.48.15-.18.05-.37.08-.57.11-.2.03-.4.04-.61.04Zm-.25-5.44c-.13,0-.25.02-.37.05-.12.03-.22.09-.31.17-.09.08-.17.18-.23.31-.06.13-.09.28-.09.47h1.91c0-.19-.01-.35-.06-.47-.05-.12-.12-.23-.2-.31-.08-.08-.18-.14-.3-.17-.12-.03-.24-.05-.36-.05Z"/><path class="cls-2" d="m88.23,18.79c-.26,0-.48-.21-.48-.48v-5.48c0-.19.03-.35.1-.49.06-.14.15-.26.25-.35.11-.09.23-.17.36-.22s.28-.07.43-.07c.22,0,.42.05.62.16.19.11.34.27.44.48.21-.2.44-.35.7-.47.26-.11.52-.17.8-.17.08,0,.17,0,.27.02.09.01.18.04.27.07.22.09.38.24.49.45.11.21.15.45.11.71-.04.27-.15.48-.33.64-.18.16-.4.24-.65.24-.08,0-.17,0-.26,0-.09,0-.18,0-.26,0-.32.02-.56.12-.74.28-.18.17-.27.39-.29.68v3.52c0,.26-.21.48-.48.48h-1.34Z"/><path class="cls-2" d="m42.45,32.4c-.26,0-.48-.21-.48-.48v-6.86c0-.32.03-.6.08-.83.06-.23.15-.41.29-.56.14-.14.32-.25.54-.31.23-.06.51-.1.85-.1h3.77c.17,0,.31.03.42.09s.21.14.28.24c.08.1.13.21.16.33.03.12.05.24.05.35s-.02.23-.05.35-.09.22-.16.32c-.07.09-.17.17-.28.23-.12.06-.26.08-.42.08h-2.87c-.13,0-.21.02-.26.06-.05.04-.07.13-.07.27v.95c0,.26.21.48.48.48h2.43c.17,0,.31.03.42.09.11.06.21.14.28.24.08.1.13.21.16.33.03.12.05.24.05.35s-.02.23-.05.35c-.03.12-.09.22-.16.32-.07.09-.17.17-.28.23-.12.06-.26.08-.42.08h-2.43c-.26,0-.48.21-.48.48v2.45c0,.26-.21.48-.48.48h-1.38Z"/><path class="cls-2" d="m49.13,28.43c0-.61.1-1.12.29-1.52.2-.4.45-.72.77-.96s.67-.41,1.06-.51c.39-.1.77-.15,1.16-.15s.76.05,1.15.15c.39.1.74.27,1.06.51s.57.56.77.96.3.91.3,1.52v1.04c0,.61-.1,1.12-.3,1.52s-.46.72-.77.96-.67.41-1.06.51c-.39.1-.77.15-1.15.15s-.76-.05-1.15-.15c-.39-.1-.74-.27-1.06-.51s-.58-.56-.77-.96c-.2-.4-.3-.91-.3-1.52v-1.04Zm4.29-.1c0-.2-.03-.38-.09-.52-.06-.14-.14-.26-.23-.35-.09-.09-.2-.16-.32-.2-.12-.04-.24-.06-.36-.06s-.24.02-.36.06c-.12.04-.23.11-.32.2-.09.09-.17.21-.23.35s-.09.31-.09.52v1.25c0,.2.03.38.09.52s.14.26.23.35c.09.09.2.16.32.2.12.04.24.06.36.06s.24-.02.36-.06c.12-.04.23-.11.32-.2.09-.09.17-.21.23-.35.06-.14.09-.31.09-.52v-1.25Z"/><path class="cls-2" d="m57.21,32.4c-.26,0-.48-.21-.48-.48v-5.48c0-.19.03-.35.1-.49.06-.14.15-.26.25-.35.11-.09.23-.17.36-.22s.28-.07.43-.07c.22,0,.42.05.62.16.19.11.34.27.44.48.21-.2.44-.35.7-.47.26-.11.52-.17.8-.17.08,0,.17,0,.27.02.09.01.18.04.27.07.22.09.38.24.49.45.11.21.15.45.11.71-.04.27-.15.48-.33.64-.18.16-.4.24-.65.24-.08,0-.17,0-.26,0-.09,0-.18,0-.26,0-.32.02-.56.12-.74.28-.18.17-.27.39-.29.68v3.52c0,.26-.21.48-.48.48h-1.34Z"/><path class="cls-2" d="m64.39,29.46c0,.24.03.44.1.6.07.15.15.28.26.36.11.09.22.15.36.18s.26.05.39.05c.19,0,.35-.01.48-.04.13-.03.27-.07.42-.14.08-.04.17-.08.26-.13.09-.05.19-.08.29-.1.17-.03.33-.01.48.05.16.06.28.17.38.33.08.13.12.26.13.4.01.14,0,.28-.06.41-.05.13-.12.26-.22.37-.1.11-.21.21-.35.29-.21.13-.47.24-.78.35-.31.1-.66.15-1.04.15-.41,0-.82-.05-1.23-.15-.41-.1-.78-.27-1.11-.51-.33-.24-.59-.56-.8-.96-.2-.4-.3-.91-.3-1.52v-1c0-.6.1-1.1.3-1.5.2-.4.47-.72.79-.96.32-.24.68-.42,1.08-.52.4-.11.8-.16,1.19-.16s.76.05,1.05.14c.29.09.53.19.71.31.14.08.25.18.35.29.1.11.17.23.22.36.05.13.07.26.07.39s-.04.26-.12.39c-.11.19-.24.31-.4.36-.16.05-.33.07-.51.05-.11-.02-.2-.04-.29-.08-.09-.04-.17-.08-.25-.11-.11-.05-.22-.09-.33-.11s-.25-.03-.42-.03c-.13,0-.26.02-.38.05-.13.03-.25.09-.36.18-.11.09-.2.21-.27.36-.07.15-.1.35-.1.6v1.02Z"/><path class="cls-2" d="m73.11,32.4l-.09-.48c-.22.2-.47.37-.77.49-.29.12-.61.18-.95.18h-.25c-.23,0-.49-.04-.76-.11-.27-.07-.52-.19-.75-.37-.23-.17-.42-.41-.58-.7-.16-.3-.23-.67-.23-1.11s.08-.79.23-1.08c.15-.29.35-.52.61-.69.25-.17.55-.3.88-.37.34-.08.69-.11,1.06-.11h1.17c0-.17-.04-.3-.1-.41s-.13-.2-.23-.26c-.09-.06-.2-.11-.33-.14-.12-.03-.26-.04-.39-.04-.13,0-.25.01-.37.03s-.25.05-.38.09c-.09.03-.18.06-.25.1s-.17.08-.28.12c-.11.05-.22.08-.33.09-.12,0-.23-.01-.35-.05-.11-.03-.22-.09-.31-.16-.09-.08-.17-.17-.22-.28-.11-.23-.12-.45-.04-.66s.21-.4.41-.55c.15-.11.32-.21.51-.28.19-.08.38-.14.59-.19.2-.05.41-.09.62-.11.21-.02.41-.03.61-.03.41,0,.8.04,1.17.13s.7.24.98.47.51.53.68.92c.17.39.25.9.25,1.51v3.58c0,.26-.21.48-.48.48h-1.31Zm-.44-2.69h-1.03c-.22,0-.38.05-.5.15s-.17.24-.17.43.06.33.17.42c.11.09.27.14.46.14h.16c.11,0,.21-.01.32-.05.11-.03.2-.08.29-.14.09-.06.16-.14.21-.23.06-.09.08-.2.08-.32v-.41Z"/><path class="cls-2" d="m78.17,27.48c-.01.14.07.24.24.31.18.07.48.14.9.22.08.01.15.03.22.05.07.02.14.03.21.05.68.17,1.18.47,1.49.89.32.42.43.97.35,1.66-.04.33-.15.62-.32.87s-.39.45-.66.61-.58.28-.93.36-.72.12-1.11.12c-.2,0-.4,0-.61-.03-.21-.02-.41-.05-.62-.1-.2-.05-.4-.11-.59-.19s-.35-.18-.5-.3c-.2-.17-.33-.37-.4-.62-.07-.25-.03-.49.13-.73.08-.12.19-.21.31-.26.12-.05.26-.08.41-.09.18,0,.32.02.43.08.11.06.21.12.3.18.12.08.29.14.52.18.23.05.45.07.67.07s.39-.04.5-.11c.12-.08.18-.17.2-.27.01-.14-.1-.24-.35-.32s-.59-.16-1.02-.26c-.08-.02-.16-.03-.24-.05-.08-.02-.15-.04-.22-.06-.44-.14-.79-.32-1.04-.55-.25-.23-.42-.49-.52-.77-.1-.28-.13-.57-.1-.87s.11-.59.23-.85c.11-.23.26-.44.45-.61s.4-.32.63-.43.49-.19.76-.24c.27-.05.55-.08.84-.08.45,0,.84.04,1.17.13s.58.18.78.29c.23.13.42.3.55.53s.17.46.09.72c-.07.22-.18.37-.34.45s-.34.12-.54.12c-.08,0-.16-.01-.25-.04-.09-.03-.17-.06-.22-.1-.07-.05-.15-.08-.25-.12-.1-.03-.2-.07-.31-.1s-.22-.05-.33-.07c-.11-.01-.21-.02-.31-.02-.18,0-.32.04-.43.11-.11.07-.16.16-.17.26Z"/><path class="cls-2" d="m83.21,27.41h-.37c-.35,0-.61-.09-.76-.28s-.23-.4-.23-.65c0-.11.02-.23.05-.34.03-.11.09-.22.17-.31s.18-.16.31-.22c.13-.06.28-.09.46-.09h.37v-1.18c0-.19.03-.36.1-.5.06-.14.15-.26.25-.35.11-.09.22-.16.36-.2.13-.05.27-.07.41-.07s.28.02.41.07c.13.05.25.11.36.2.11.09.19.21.25.35.06.14.1.31.1.5v1.18h.67c.18,0,.33.03.46.09.12.06.23.13.3.22s.14.19.18.31c.04.11.06.23.06.34,0,.24-.08.46-.23.65s-.41.28-.76.28h-.67v2.81c0,.17.04.29.11.34.07.05.16.08.25.09.08,0,.16,0,.23-.02.07-.02.16-.03.27-.03.19,0,.35.06.5.17.14.11.23.26.27.45.05.23.04.44-.05.62-.09.18-.21.33-.37.43-.13.08-.29.15-.49.22-.2.06-.39.09-.59.09-.38,0-.71-.04-1.01-.12-.29-.08-.54-.22-.75-.4-.2-.18-.36-.42-.46-.71s-.16-.66-.16-1.09v-2.86Z"/></g><g id="favicon"><circle class="cls-5" cx="29.74" cy="18.71" r="4.64"/><rect class="cls-1" x="14.4" y="20.27" width="22.49" height="9.45" rx="4.72" ry="4.72"/><path class="cls-4" d="m21.09,12.02c-3.82,0-7.08,2.41-8.34,5.8-.33,1.19-.61,2.4-.54,3.63.06,1.11.42,2.18.59,3.28.27,1.7.09,3.45-.5,5.08h8.79c4.91,0,8.89-3.98,8.89-8.89s-3.98-8.89-8.89-8.89Z"/><circle class="cls-3" cx="11.92" cy="23.84" r="5.96"/></g></svg>